<?xml version="1.0" encoding="UTF-8"?> <!-- Generator: Adobe Illustrator 25.2.1, SVG Export Plug-In . SVG Version: 6.00 Build 0) --> <svg xmlns="http://www.w3.org/2000/svg" xmlns:xlink="http://www.w3.org/1999/xlink" version="1.1" id="Layer_1" x="0px" y="0px" viewBox="0 0 130 55" style="enable-background:new 0 0 130 55;" xml:space="preserve"> <style type="text/css"> .st0{clip-path:url(#SVGID_2_);} .st1{fill:#FFFFFF;} .st2{clip-path:url(#SVGID_4_);} .st3{clip-path:url(#SVGID_6_);} .st4{clip-path:url(#SVGID_8_);} .st5{clip-path:url(#SVGID_10_);} .st6{clip-path:url(#SVGID_12_);} .st7{clip-path:url(#SVGID_14_);} .st8{clip-path:url(#SVGID_16_);} .st9{clip-path:url(#SVGID_18_);} .st10{clip-path:url(#SVGID_20_);} .st11{clip-path:url(#SVGID_22_);} .st12{clip-path:url(#SVGID_24_);} .st13{clip-path:url(#SVGID_26_);} .st14{clip-path:url(#SVGID_28_);} .st15{clip-path:url(#SVGID_30_);} .st16{clip-path:url(#SVGID_32_);} .st17{clip-path:url(#SVGID_34_);} .st18{clip-path:url(#SVGID_36_);} .st19{clip-path:url(#SVGID_38_);} .st20{clip-path:url(#SVGID_40_);} .st21{clip-path:url(#SVGID_42_);} .st22{clip-path:url(#SVGID_44_);} .st23{clip-path:url(#SVGID_46_);} .st24{clip-path:url(#SVGID_48_);} .st25{clip-path:url(#SVGID_50_);} .st26{clip-path:url(#SVGID_52_);} .st27{clip-path:url(#SVGID_54_);} .st28{clip-path:url(#SVGID_56_);} .st29{fill-rule:evenodd;clip-rule:evenodd;fill:#FFFFFF;} .st30{clip-path:url(#SVGID_58_);} .st31{clip-path:url(#SVGID_60_);} </style> <g> <defs> <rect id="SVGID_1_" x="-250" y="-37" width="1440" height="6050"></rect> </defs> <clipPath id="SVGID_2_"> <use xlink:href="#SVGID_1_" style="overflow:visible;"></use> </clipPath> <g class="st0"> <path class="st1" d="M0.1,0h3.3v48.6H0.1V0z"></path> </g> </g> <g> <defs> <rect id="SVGID_3_" x="-250" y="-37" width="1440" height="6050"></rect> </defs> <clipPath id="SVGID_4_"> <use xlink:href="#SVGID_3_" style="overflow:visible;"></use> </clipPath> <g class="st2"> <path class="st1" d="M5,0h1.6v48.6H5V0z"></path> </g> </g> <g> <defs> <rect id="SVGID_5_" x="-250" y="-37" width="1440" height="6050"></rect> </defs> <clipPath id="SVGID_6_"> <use xlink:href="#SVGID_5_" style="overflow:visible;"></use> </clipPath> <g class="st3"> <path class="st1" d="M9.9,0h4.8v39.5H9.9V0z"></path> </g> </g> <g> <defs> <rect id="SVGID_7_" x="-250" y="-37" width="1440" height="6050"></rect> </defs> <clipPath id="SVGID_8_"> <use xlink:href="#SVGID_7_" style="overflow:visible;"></use> </clipPath> <g class="st4"> <path class="st1" d="M18.1,0h3.4v39.5h-3.4V0z"></path> </g> </g> <g> <defs> <rect id="SVGID_9_" x="-250" y="-37" width="1440" height="6050"></rect> </defs> <clipPath id="SVGID_10_"> <use xlink:href="#SVGID_9_" style="overflow:visible;"></use> </clipPath> <g class="st5"> <path class="st1" d="M23.1,0h6.6v39.5h-6.6V0z"></path> </g> </g> <g> <defs> <rect id="SVGID_11_" x="-250" y="-37" width="1440" height="6050"></rect> </defs> <clipPath id="SVGID_12_"> <use xlink:href="#SVGID_11_" style="overflow:visible;"></use> </clipPath> <g class="st6"> <path class="st1" d="M31.3,0h3.3v39.5h-3.3V0z"></path> </g> </g> <g> <defs> <rect id="SVGID_13_" x="-250" y="-37" width="1440" height="6050"></rect> </defs> <clipPath id="SVGID_14_"> <use xlink:href="#SVGID_13_" style="overflow:visible;"></use> </clipPath> <g class="st7"> <path class="st1" d="M36.2,0h1.7v39.5h-1.7V0z"></path> </g> </g> <g> <defs> <rect id="SVGID_15_" x="-250" y="-37" width="1440" height="6050"></rect> </defs> <clipPath id="SVGID_16_"> <use xlink:href="#SVGID_15_" style="overflow:visible;"></use> </clipPath> <g class="st8"> <path class="st1" d="M39.4,0h1.8v39.5h-1.8V0z"></path> </g> </g> <g> <defs> <rect id="SVGID_17_" x="-250" y="-37" width="1440" height="6050"></rect> </defs> <clipPath id="SVGID_18_"> <use xlink:href="#SVGID_17_" style="overflow:visible;"></use> </clipPath> <g class="st9"> <path class="st1" d="M46,0h6.6v39.5H46V0z"></path> </g> </g> <g> <defs> <rect id="SVGID_19_" x="-250" y="-37" width="1440" height="6050"></rect> </defs> <clipPath id="SVGID_20_"> <use xlink:href="#SVGID_19_" style="overflow:visible;"></use> </clipPath> <g class="st10"> <path class="st1" d="M54.3,0H56v39.5h-1.7V0z"></path> </g> </g> <g> <defs> <rect id="SVGID_21_" x="-250" y="-37" width="1440" height="6050"></rect> </defs> <clipPath id="SVGID_22_"> <use xlink:href="#SVGID_21_" style="overflow:visible;"></use> </clipPath> <g class="st11"> <path class="st1" d="M60.8,0h3.3v39.5h-3.3V0z"></path> </g> </g> <g> <defs> <rect id="SVGID_23_" x="-250" y="-37" width="1440" height="6050"></rect> </defs> <clipPath id="SVGID_24_"> <use xlink:href="#SVGID_23_" style="overflow:visible;"></use> </clipPath> <g class="st12"> <path class="st1" d="M67.5,0H69v39.5h-1.6V0z"></path> </g> </g> <g> <defs> <rect id="SVGID_25_" x="-250" y="-37" width="1440" height="6050"></rect> </defs> <clipPath id="SVGID_26_"> <use xlink:href="#SVGID_25_" style="overflow:visible;"></use> </clipPath> <g class="st13"> <path class="st1" d="M72.4,0h4.8v48.7h-4.8V0z"></path> </g> </g> <g> <defs> <rect id="SVGID_27_" x="-250" y="-37" width="1440" height="6050"></rect> </defs> <clipPath id="SVGID_28_"> <use xlink:href="#SVGID_27_" style="overflow:visible;"></use> </clipPath> <g class="st14"> <path class="st1" d="M78.9,0h3.2v48.7h-3.2V0z"></path> </g> </g> <g> <defs> <rect id="SVGID_29_" x="-250" y="-37" width="1440" height="6050"></rect> </defs> <clipPath id="SVGID_30_"> <use xlink:href="#SVGID_29_" style="overflow:visible;"></use> </clipPath> <g class="st15"> <path class="st1" d="M83.9,0h4.8v39.5h-4.8V0z"></path> </g> </g> <g> <defs> <rect id="SVGID_31_" x="-250" y="-37" width="1440" height="6050"></rect> </defs> <clipPath id="SVGID_32_"> <use xlink:href="#SVGID_31_" style="overflow:visible;"></use> </clipPath> <g class="st16"> <path class="st1" d="M90.5,0H92v39.5h-1.5V0z"></path> </g> </g> <g> <defs> <rect id="SVGID_33_" x="-250" y="-37" width="1440" height="6050"></rect> </defs> <clipPath id="SVGID_34_"> <use xlink:href="#SVGID_33_" style="overflow:visible;"></use> </clipPath> <g class="st17"> <path class="st1" d="M95.4,0h6.6v39.5h-6.6V0z"></path> </g> </g> <g> <defs> <rect id="SVGID_35_" x="-250" y="-37" width="1440" height="6050"></rect> </defs> <clipPath id="SVGID_36_"> <use xlink:href="#SVGID_35_" style="overflow:visible;"></use> </clipPath> <g class="st18"> <path class="st1" d="M105.2,0h1.7v39.5h-1.7V0z"></path> </g> </g> <g> <defs> <rect id="SVGID_37_" x="-250" y="-37" width="1440" height="6050"></rect> </defs> <clipPath id="SVGID_38_"> <use xlink:href="#SVGID_37_" style="overflow:visible;"></use> </clipPath> <g class="st19"> <path class="st1" d="M108.5,0h3.2v39.5h-3.2V0z"></path> </g> </g> <g> <defs> <rect id="SVGID_39_" x="-250" y="-37" width="1440" height="6050"></rect> </defs> <clipPath id="SVGID_40_"> <use xlink:href="#SVGID_39_" style="overflow:visible;"></use> </clipPath> <g class="st20"> <path class="st1" d="M116.6,0h4.9v39.5h-4.9V0z"></path> </g> </g> <g> <defs> <rect id="SVGID_41_" x="-250" y="-37" width="1440" height="6050"></rect> </defs> <clipPath id="SVGID_42_"> <use xlink:href="#SVGID_41_" style="overflow:visible;"></use> </clipPath> <g class="st21"> <path class="st1" d="M123.1,0h1.7v48.7h-1.7V0z"></path> </g> </g> <g> <defs> <rect id="SVGID_43_" x="-250" y="-37" width="1440" height="6050"></rect> </defs> <clipPath id="SVGID_44_"> <use xlink:href="#SVGID_43_" style="overflow:visible;"></use> </clipPath> <g class="st22"> <path class="st1" d="M126.4,0h3.4v48.7h-3.4V0z"></path> </g> </g> <g> <defs> <rect id="SVGID_45_" x="-250" y="-37" width="1440" height="6050"></rect> </defs> <clipPath id="SVGID_46_"> <use xlink:href="#SVGID_45_" style="overflow:visible;"></use> </clipPath> <g class="st23"> <path class="st1" d="M20.9,54.1c0,0.5-0.3,0.7-0.9,0.7c-0.6,0-1-0.2-1-0.7v-7.5c-0.4,0.8-0.7,1.6-1,2.4c-0.3,0.8-0.7,1.6-1,2.4 c-0.2,0.3-0.5,0.5-0.9,0.5c-0.4,0-0.7-0.2-0.8-0.5l-2-4.8v7.6c0,0.2-0.1,0.4-0.2,0.5c-0.2,0.1-0.5,0.2-0.8,0.2 c-0.6,0-0.9-0.2-0.9-0.6v-8.7c0-0.4,0.3-0.6,0.8-0.6h2.4l1.6,3.8l1.6-3.8h2.3c0.5,0,0.8,0.2,0.8,0.6V54.1z"></path> </g> </g> <g> <defs> <rect id="SVGID_47_" x="-250" y="-37" width="1440" height="6050"></rect> </defs> <clipPath id="SVGID_48_"> <use xlink:href="#SVGID_47_" style="overflow:visible;"></use> </clipPath> <g class="st24"> <path class="st1" d="M32.2,54.2c0,0.4-0.3,0.7-0.9,0.7h-5.7c-0.6,0-1-0.2-1-0.7c0-0.2,0.1-0.4,0.2-0.5c0.2-0.1,0.5-0.2,0.7-0.2 h1.8v-7.1h-1.6c-0.6,0-0.9-0.3-0.9-0.8c0-0.4,0.3-0.6,0.9-0.6h5c0.6,0,1,0.2,1,0.6c0,0.5-0.3,0.8-0.9,0.8h-1.5v7.1h1.9 c0.2,0,0.5,0.1,0.7,0.2C32.2,53.8,32.2,54,32.2,54.2L32.2,54.2z"></path> </g> </g> <g> <defs> <rect id="SVGID_49_" x="-250" y="-37" width="1440" height="6050"></rect> </defs> <clipPath id="SVGID_50_"> <use xlink:href="#SVGID_49_" style="overflow:visible;"></use> </clipPath> <g class="st25"> <path class="st1" d="M43.7,53.6c-0.3,0.3-0.7,0.6-1.1,0.8c-0.4,0.2-0.9,0.3-1.3,0.4c-0.5,0.1-1.1,0.2-1.6,0.2 c-0.8,0-1.7-0.2-2.4-0.6c-0.4-0.2-0.7-0.4-0.9-0.7c-0.2-0.3-0.4-0.6-0.3-1c0-0.5,0.3-0.8,0.9-0.8s0.9,0.2,0.9,0.6v0 c0,0.1,0,0.2,0.1,0.3c0.1,0.1,0.1,0.2,0.2,0.2c0.3,0.3,0.9,0.5,1.8,0.5c1.6,0,2.4-0.4,2.4-1c0-0.5-0.6-1.1-1.7-1.6 c-0.9-0.5-1.9-0.9-2.9-1.4c-1.1-0.6-1.6-1.3-1.6-1.8v-0.1c0-0.8,0.4-1.5,1.1-1.9c0.8-0.5,1.8-0.8,2.7-0.8c0.5,0,0.9,0.1,1.4,0.1 c0.4,0.1,0.8,0.2,1.2,0.3c0.4,0.1,0.8,0.4,1.1,0.7c0.2,0.2,0.4,0.5,0.5,0.8c0,0.4-0.3,0.7-0.6,0.7c-0.1,0-0.3,0-0.4,0 c-0.4,0.1-0.8-0.2-0.9-0.6c0-0.3-0.2-0.5-0.4-0.6c-0.5-0.2-1.1-0.2-1.6-0.2c-0.5,0-1.1,0.1-1.6,0.4c-0.4,0.2-0.6,0.6-0.6,1 c0,0.4,0.6,0.9,1.9,1.4c0.4,0.2,0.9,0.4,1.4,0.7l1.4,0.7c0.5,0.3,0.8,0.6,1.2,1c0.3,0.3,0.4,0.7,0.4,1.1 C44.1,52.9,44,53.3,43.7,53.6L43.7,53.6z"></path> </g> </g> <g> <defs> <rect id="SVGID_51_" x="-250" y="-37" width="1440" height="6050"></rect> </defs> <clipPath id="SVGID_52_"> <use xlink:href="#SVGID_51_" style="overflow:visible;"></use> </clipPath> <g class="st26"> <path class="st1" d="M56.7,54.2c0,0.5-0.3,0.7-0.9,0.7c-0.6,0-1-0.2-1-0.6v-3.8h-4.7v3.7c-0.1,0.5-0.4,0.8-0.9,0.8h-0.1 c-0.5,0-0.8-0.2-0.9-0.8v-8.5c0-0.4,0.4-0.6,1-0.7c0.5,0,0.8,0.2,0.9,0.7V49h4.7v-3.5c0-0.4,0.3-0.6,1-0.7c0.5,0,0.8,0.2,0.9,0.7 L56.7,54.2L56.7,54.2z"></path> </g> </g> <g> <defs> <rect id="SVGID_53_" x="-250" y="-37" width="1440" height="6050"></rect> </defs> <clipPath id="SVGID_54_"> <use xlink:href="#SVGID_53_" style="overflow:visible;"></use> </clipPath> <g class="st27"> <path class="st1" d="M67.9,54.2c0,0.5-0.3,0.7-0.9,0.7h-5.7c-0.6,0-1-0.2-1-0.7c0-0.2,0.1-0.4,0.2-0.5c0.2-0.1,0.5-0.2,0.7-0.2 h1.8v-7.1h-1.6c-0.6,0-0.9-0.3-0.9-0.8c0-0.4,0.3-0.6,0.9-0.6h5c0.6,0,1,0.2,1,0.6c0,0.5-0.3,0.8-0.9,0.8H65v7.1h1.9 c0.2,0,0.5,0.1,0.7,0.2C67.8,53.8,67.9,54,67.9,54.2L67.9,54.2z"></path> </g> </g> <g> <defs> <rect id="SVGID_55_" x="-250" y="-37" width="1440" height="6050"></rect> </defs> <clipPath id="SVGID_56_"> <use xlink:href="#SVGID_55_" style="overflow:visible;"></use> </clipPath> <g class="st28"> <path class="st29" d="M96.5,49.8c0.7-0.6,1-1.2,1-1.8l0.1-0.1c0-0.5-0.2-1-0.5-1.4c-0.4-0.4-0.8-0.8-1.3-1 c-0.3-0.1-0.5-0.2-0.8-0.3C94.6,45,94.4,45,94.1,45h-5.4v9.2c0,0.4,0.4,0.6,1.1,0.6c0.6,0,0.9-0.2,0.9-0.6v-3.6h3.6 C95,50.6,95.8,50.3,96.5,49.8z M94.1,46.3c1.1,0.2,1.6,0.6,1.6,1.5c0,0.4-0.1,0.8-0.4,1c-0.4,0.3-0.8,0.4-1.2,0.5h-3.6v-2.9H94.1z "></path> </g> </g> <g> <defs> <rect id="SVGID_57_" x="-250" y="-37" width="1440" height="6050"></rect> </defs> <clipPath id="SVGID_58_"> <use xlink:href="#SVGID_57_" style="overflow:visible;"></use> </clipPath> <g class="st30"> <path class="st29" d="M108.7,54.1c0-0.1,0-0.1,0-0.1l-1.1-2.8c-0.6-1.7-1.1-3-1.4-4c-0.4-1-0.5-1.6-0.6-1.8 c-0.2-0.3-0.5-0.5-0.8-0.4h-1.7c-0.2,0-0.4,0-0.5,0.1c-0.1,0.1-0.2,0.2-0.2,0.3c-0.5,1.4-1,2.9-1.5,4.3c-0.5,1.4-1,2.9-1.5,4.3 c0,0.1-0.1,0.2-0.1,0.2c0,0.3,0.2,0.4,0.6,0.5c0.1,0,0.3,0,0.5,0c0.4,0,0.7-0.1,0.8-0.5l0.7-2.4h4l0.9,2.4 c0.1,0.3,0.5,0.5,0.8,0.5c0.1,0,0.3,0,0.4,0c0.4-0.1,0.6-0.3,0.6-0.6V54.1z M103.9,46.3L103.9,46.3l1.6,4.2c0,0,0,0.1-0.1,0.1 h-2.8c-0.1,0-0.1,0-0.1-0.1L103.9,46.3z"></path> </g> </g> <g> <defs> <rect id="SVGID_59_" x="-250" y="-37" width="1440" height="6050"></rect> </defs> <clipPath id="SVGID_60_"> <use xlink:href="#SVGID_59_" style="overflow:visible;"></use> </clipPath> <g class="st31"> <path class="st1" d="M116.1,50.4v3.9c0,0.4-0.3,0.6-1,0.6s-0.9-0.2-0.9-0.6v-3.9c-0.5-0.7-1.1-1.4-1.6-2.2 c-0.6-0.8-1.1-1.5-1.6-2.2c-0.1-0.1-0.1-0.2-0.1-0.4c0-0.2,0.1-0.3,0.4-0.4c0.2-0.1,0.4-0.2,0.6-0.2c0.2,0,0.5,0.1,0.7,0.3 l2.6,3.5c0.5-0.6,0.9-1.2,1.4-1.8c0.5-0.6,0.9-1.2,1.4-1.7c0.2-0.2,0.4-0.2,0.6-0.2c0.2,0,0.5,0.1,0.6,0.2 c0.3,0.1,0.5,0.3,0.5,0.5c0,0.1-0.1,0.2-0.1,0.3L116.1,50.4z"></path> </g> </g> </svg> 