<?xml version="1.0" encoding="UTF-8"?> <svg xmlns="http://www.w3.org/2000/svg" xmlns:xlink="http://www.w3.org/1999/xlink" width="130" height="55"><defs><clipPath id="clip_0"><rect x="-250" y="-37" width="1440" height="6050" clip-rule="evenodd"></rect></clipPath></defs><g clip-path="url(#clip_0)"><path fill="rgb(0,0,0)" stroke="none" transform="translate(0.0540466 0.0268555)" d="M0 0L3.2973 0L3.2973 48.5877L0 48.5877L0 0Z"></path></g><defs><clipPath id="clip_1"><rect x="-250" y="-37" width="1440" height="6050" clip-rule="evenodd"></rect></clipPath></defs><g clip-path="url(#clip_1)"><path fill="rgb(0,0,0)" stroke="none" transform="translate(5 0.0268555)" d="M0 0L1.62162 0L1.62162 48.5877L0 48.5877L0 0Z"></path></g><defs><clipPath id="clip_2"><rect x="-250" y="-37" width="1440" height="6050" clip-rule="evenodd"></rect></clipPath></defs><g clip-path="url(#clip_2)"><path fill="rgb(0,0,0)" stroke="none" transform="translate(9.91891 0.0268555)" d="M0 0L4.83784 0L4.83784 39.5027L0 39.5027L0 0Z"></path></g><defs><clipPath id="clip_3"><rect x="-250" y="-37" width="1440" height="6050" clip-rule="evenodd"></rect></clipPath></defs><g clip-path="url(#clip_3)"><path fill="rgb(0,0,0)" stroke="none" transform="translate(18.1081 0.0268555)" d="M0 0L3.35135 0L3.35135 39.5295L0 39.5295L0 0Z"></path></g><defs><clipPath id="clip_4"><rect x="-250" y="-37" width="1440" height="6050" clip-rule="evenodd"></rect></clipPath></defs><g clip-path="url(#clip_4)"><path fill="rgb(0,0,0)" stroke="none" transform="translate(23.0811 0.0268555)" d="M0 0L6.62162 0L6.62162 39.5295L0 39.5295L0 0Z"></path></g><defs><clipPath id="clip_5"><rect x="-250" y="-37" width="1440" height="6050" clip-rule="evenodd"></rect></clipPath></defs><g clip-path="url(#clip_5)"><path fill="rgb(0,0,0)" stroke="none" transform="translate(31.2703 0.0268555)" d="M0 0L3.27027 0L3.27027 39.5295L0 39.5295L0 0Z"></path></g><defs><clipPath id="clip_6"><rect x="-250" y="-37" width="1440" height="6050" clip-rule="evenodd"></rect></clipPath></defs><g clip-path="url(#clip_6)"><path fill="rgb(0,0,0)" stroke="none" transform="translate(36.1892 0.0268555)" d="M0 0L1.7027 0L1.7027 39.5027L0 39.5027L0 0Z"></path></g><defs><clipPath id="clip_7"><rect x="-250" y="-37" width="1440" height="6050" clip-rule="evenodd"></rect></clipPath></defs><g clip-path="url(#clip_7)"><path fill="rgb(0,0,0)" stroke="none" transform="translate(39.3784 0.0268555)" d="M0 0L1.78378 0L1.78378 39.5295L0 39.5295L0 0Z"></path></g><defs><clipPath id="clip_8"><rect x="-250" y="-37" width="1440" height="6050" clip-rule="evenodd"></rect></clipPath></defs><g clip-path="url(#clip_8)"><path fill="rgb(0,0,0)" stroke="none" transform="translate(46.027 0.0268555)" d="M0 0L6.62162 0L6.62162 39.5295L0 39.5295L0 0Z"></path></g><defs><clipPath id="clip_9"><rect x="-250" y="-37" width="1440" height="6050" clip-rule="evenodd"></rect></clipPath></defs><g clip-path="url(#clip_9)"><path fill="rgb(0,0,0)" stroke="none" transform="translate(54.2703 0.0268555)" d="M0 0L1.7027 0L1.7027 39.5027L0 39.5027L0 0Z"></path></g><defs><clipPath id="clip_10"><rect x="-250" y="-37" width="1440" height="6050" clip-rule="evenodd"></rect></clipPath></defs><g clip-path="url(#clip_10)"><path fill="rgb(0,0,0)" stroke="none" transform="translate(60.8378 0.0268555)" d="M0 0L3.27027 0L3.27027 39.5027L0 39.5027L0 0Z"></path></g><defs><clipPath id="clip_11"><rect x="-250" y="-37" width="1440" height="6050" clip-rule="evenodd"></rect></clipPath></defs><g clip-path="url(#clip_11)"><path fill="rgb(0,0,0)" stroke="none" transform="translate(67.4595 0.0268555)" d="M0 0L1.56757 0L1.56757 39.5027L0 39.5027L0 0Z"></path></g><defs><clipPath id="clip_12"><rect x="-250" y="-37" width="1440" height="6050" clip-rule="evenodd"></rect></clipPath></defs><g clip-path="url(#clip_12)"><path fill="rgb(0,0,0)" stroke="none" transform="translate(72.3784 0.0268555)" d="M0 0L4.83784 0L4.83784 48.7217L0 48.7217L0 0Z"></path></g><defs><clipPath id="clip_13"><rect x="-250" y="-37" width="1440" height="6050" clip-rule="evenodd"></rect></clipPath></defs><g clip-path="url(#clip_13)"><path fill="rgb(0,0,0)" stroke="none" transform="translate(78.9189 0.0268555)" d="M0 0L3.24324 0L3.24324 48.7217L0 48.7217L0 0Z"></path></g><defs><clipPath id="clip_14"><rect x="-250" y="-37" width="1440" height="6050" clip-rule="evenodd"></rect></clipPath></defs><g clip-path="url(#clip_14)"><path fill="rgb(0,0,0)" stroke="none" transform="translate(83.8649 0.0268555)" d="M0 0L4.83784 0L4.83784 39.5027L0 39.5027L0 0Z"></path></g><defs><clipPath id="clip_15"><rect x="-250" y="-37" width="1440" height="6050" clip-rule="evenodd"></rect></clipPath></defs><g clip-path="url(#clip_15)"><path fill="rgb(0,0,0)" stroke="none" transform="translate(90.4865 0.0268555)" d="M0 0L1.51351 0L1.51351 39.5295L0 39.5295L0 0Z"></path></g><defs><clipPath id="clip_16"><rect x="-250" y="-37" width="1440" height="6050" clip-rule="evenodd"></rect></clipPath></defs><g clip-path="url(#clip_16)"><path fill="rgb(0,0,0)" stroke="none" transform="translate(95.3784 0.0268555)" d="M0 0L6.56757 0L6.56757 39.5027L0 39.5027L0 0Z"></path></g><defs><clipPath id="clip_17"><rect x="-250" y="-37" width="1440" height="6050" clip-rule="evenodd"></rect></clipPath></defs><g clip-path="url(#clip_17)"><path fill="rgb(0,0,0)" stroke="none" transform="translate(105.162 0.0268555)" d="M0 0L1.72973 0L1.72973 39.5027L0 39.5027L0 0Z"></path></g><defs><clipPath id="clip_18"><rect x="-250" y="-37" width="1440" height="6050" clip-rule="evenodd"></rect></clipPath></defs><g clip-path="url(#clip_18)"><path fill="rgb(0,0,0)" stroke="none" transform="translate(108.459 0.0268555)" d="M0 0L3.24324 0L3.24324 39.5027L0 39.5027L0 0Z"></path></g><defs><clipPath id="clip_19"><rect x="-250" y="-37" width="1440" height="6050" clip-rule="evenodd"></rect></clipPath></defs><g clip-path="url(#clip_19)"><path fill="rgb(0,0,0)" stroke="none" transform="translate(116.649 0.0268555)" d="M0 0L4.94595 0L4.94595 39.5027L0 39.5027L0 0Z"></path></g><defs><clipPath id="clip_20"><rect x="-250" y="-37" width="1440" height="6050" clip-rule="evenodd"></rect></clipPath></defs><g clip-path="url(#clip_20)"><path fill="rgb(0,0,0)" stroke="none" transform="translate(123.108 0.0268555)" d="M0 0L1.72973 0L1.72973 48.7217L0 48.7217L0 0Z"></path></g><defs><clipPath id="clip_21"><rect x="-250" y="-37" width="1440" height="6050" clip-rule="evenodd"></rect></clipPath></defs><g clip-path="url(#clip_21)"><path fill="rgb(0,0,0)" stroke="none" transform="translate(126.351 0.0268555)" d="M0 0L3.43243 0L3.43243 48.7217L0 48.7217L0 0Z"></path></g><defs><clipPath id="clip_22"><rect x="-250" y="-37" width="1440" height="6050" clip-rule="evenodd"></rect></clipPath></defs><g clip-path="url(#clip_22)"><path fill="rgb(0,0,0)" stroke="none" transform="translate(11.4054 44.9697)" d="M9.54054 9.16548C9.51351 9.62107 9.24324 9.86227 8.64865 9.86227C8 9.86227 7.67568 9.62107 7.67568 9.16548L7.67568 1.66158C7.32432 2.46557 6.97297 3.26956 6.64865 4.04674C6.32432 4.82393 5.97297 5.62792 5.62162 6.45871C5.43243 6.75351 5.10811 6.94111 4.75676 6.94111C4.40541 6.96791 4.08108 6.78031 3.91892 6.45871L1.91892 1.66158L1.91892 9.24587C1.94595 9.43347 1.83784 9.62107 1.67568 9.72827C1.43243 9.83547 1.16216 9.88907 0.918919 9.88907C0.324324 9.88907 0.027027 9.67467 0 9.24587L0 0.589592C0 0.187597 0.27027 0 0.783784 0L3.18919 0L4.75676 3.77875L6.37838 0L8.7027 0C9.24324 0 9.54054 0.214397 9.54054 0.643191L9.54054 9.16548Z"></path></g><defs><clipPath id="clip_23"><rect x="-250" y="-37" width="1440" height="6050" clip-rule="evenodd"></rect></clipPath></defs><g clip-path="url(#clip_23)"><path fill="rgb(0,0,0)" stroke="none" transform="translate(24.6715 44.9697)" d="M7.57171 9.19228C7.57171 9.62107 7.27441 9.86227 6.67981 9.86227L0.977112 9.86227C0.328463 9.86227 0.00413902 9.64787 0.00413902 9.19228C-0.022888 8.97788 0.0852201 8.79028 0.247382 8.65628C0.463598 8.54908 0.706842 8.49549 0.977112 8.49549L2.81495 8.49549L2.81495 1.39358L1.22036 1.39358C0.652788 1.39358 0.35549 1.12558 0.35549 0.616392C0.35549 0.214397 0.652788 0 1.22036 0L6.24738 0C6.89603 0 7.22036 0.214397 7.22036 0.643191C7.22036 1.12558 6.92306 1.39358 6.30144 1.39358L4.78792 1.39358L4.78792 8.49549L6.67981 8.49549C6.92306 8.46869 7.1663 8.54908 7.35549 8.68308C7.49063 8.81708 7.57171 9.00468 7.57171 9.19228L7.57171 9.19228Z"></path></g><defs><clipPath id="clip_24"><rect x="-250" y="-37" width="1440" height="6050" clip-rule="evenodd"></rect></clipPath></defs><g clip-path="url(#clip_24)"><path fill="rgb(0,0,0)" stroke="none" transform="translate(35.9695 44.9429)" d="M7.73316 8.62948C7.40883 8.97788 7.03045 9.24587 6.59802 9.43347C6.16559 9.62107 5.73316 9.75507 5.2737 9.83547C4.76018 9.94267 4.21964 9.99626 3.6791 9.99626C2.84126 9.99626 2.00343 9.78187 1.2737 9.37987C0.922346 9.21908 0.598021 8.97788 0.327751 8.68308C0.111535 8.41509 -0.0236002 8.03989 0.00342683 7.6915C0.00342683 7.1555 0.327751 6.88751 0.949373 6.88751C1.57099 6.88751 1.89532 7.1019 1.89532 7.5307L1.89532 7.5575C1.89532 7.6647 1.92235 7.79869 1.9764 7.87909C2.03045 7.95949 2.08451 8.03989 2.16559 8.12029C2.46289 8.41509 3.08451 8.57588 3.94937 8.60268C5.51694 8.57588 6.32775 8.22749 6.32775 7.5575C6.32775 7.0215 5.76018 6.48551 4.62505 5.94952C3.70613 5.49393 2.76018 5.01153 1.76018 4.55594C0.679103 3.91275 0.138562 3.29636 0.138562 2.70676L0.138562 2.65316C0.138562 1.84917 0.570994 1.12558 1.2737 0.75039C2.11154 0.267996 3.03045 0 4.00343 0C4.48991 0 4.94937 0.0535993 5.40883 0.107199C5.81424 0.160798 6.19262 0.267996 6.57099 0.428794C6.9764 0.562792 7.32775 0.803989 7.65208 1.09879C7.89532 1.31318 8.05748 1.60798 8.11154 1.92957C8.11154 2.30477 7.84126 2.59956 7.48991 2.65316C7.35478 2.67996 7.21964 2.67996 7.11154 2.67996C6.70613 2.73356 6.35478 2.49237 6.21964 2.11717C6.19262 1.84917 6.03045 1.63478 5.78721 1.55438C5.2737 1.39358 4.73316 1.31318 4.19262 1.33998C3.65208 1.31318 3.11154 1.44718 2.62505 1.71518C2.24667 1.90277 2.00343 2.27797 1.9764 2.67996C2.00343 3.10876 2.62505 3.59115 3.84126 4.10034C4.2737 4.31474 4.73316 4.52914 5.19262 4.77034L6.54397 5.46713C7.00343 5.73512 7.38181 6.05672 7.73316 6.45871C8.00343 6.75351 8.16559 7.1555 8.16559 7.5575C8.16559 7.98629 8.00343 8.36149 7.73316 8.62948L7.73316 8.62948Z"></path></g><defs><clipPath id="clip_25"><rect x="-250" y="-37" width="1440" height="6050" clip-rule="evenodd"></rect></clipPath></defs><g clip-path="url(#clip_25)"><path fill="rgb(0,0,0)" stroke="none" transform="translate(48.2432 44.8894)" d="M8.45946 9.29947C8.43243 9.75507 8.16216 9.96946 7.59459 9.96946C6.94595 9.96946 6.62162 9.75507 6.56757 9.35307L6.56757 5.52072L1.89189 5.52072L1.89189 9.21907C1.83784 9.72827 1.51351 9.96946 0.945946 9.96946L0.864865 9.96946C0.324324 9.96946 0.027027 9.72827 0 9.21907L0 0.669991C0.027027 0.241197 0.351351 0.0267996 0.972973 0C1.51351 0.0267996 1.81081 0.241197 1.86486 0.669991L1.86486 4.12714L6.54054 4.12714L6.54054 0.669991C6.54054 0.241197 6.86486 0.0267996 7.51351 0C8.05405 0.0267996 8.35135 0.241197 8.40541 0.669991L8.40541 9.29947L8.45946 9.29947Z"></path></g><defs><clipPath id="clip_26"><rect x="-250" y="-37" width="1440" height="6050" clip-rule="evenodd"></rect></clipPath></defs><g clip-path="url(#clip_26)"><path fill="rgb(0,0,0)" stroke="none" transform="translate(60.2932 44.9966)" d="M7.57171 9.19228C7.57171 9.64787 7.27441 9.86227 6.67981 9.86227L0.977112 9.86227C0.328463 9.86227 0.00413902 9.64787 0.00413902 9.19228C-0.022888 8.97788 0.0852201 8.79028 0.247382 8.65628C0.463598 8.52228 0.706842 8.46869 0.977112 8.49549L2.78792 8.49549L2.78792 1.39358L1.19333 1.39358C0.625761 1.39358 0.328463 1.12558 0.328463 0.616392C0.328463 0.214397 0.598734 0 1.19333 0L6.22036 0C6.869 0 7.19333 0.214397 7.19333 0.643191C7.19333 1.15238 6.89603 1.39358 6.27441 1.39358L4.73387 1.39358L4.73387 8.49549L6.62576 8.49549C6.869 8.46869 7.11225 8.54908 7.30144 8.68308C7.49063 8.79028 7.57171 8.97788 7.57171 9.19228L7.57171 9.19228Z"></path></g><defs><clipPath id="clip_27"><rect x="-250" y="-37" width="1440" height="6050" clip-rule="evenodd"></rect></clipPath></defs><g clip-path="url(#clip_27)"><path fill="rgb(0,0,0)" stroke="none" transform="translate(88.6216 44.9697)" d="M7.91892 4.79713C8.59459 4.23434 8.91892 3.61795 8.91892 2.94796L8.97297 2.86756C8.94595 2.35837 8.75676 1.84917 8.43243 1.44718C8.08108 1.01839 7.64865 0.643191 7.13514 0.401995C6.86486 0.294796 6.59459 0.187597 6.2973 0.107199C6 0.0267996 5.72973 0 5.43243 0L0 0L0 9.19228C0 9.59427 0.351351 9.78187 1.05405 9.78187C1.64865 9.78187 1.91892 9.59427 1.91892 9.19228L1.91892 5.62792L5.48649 5.62792C6.37838 5.62792 7.21622 5.33313 7.91892 4.79713ZM5.43243 1.31318C6.48649 1.47398 7.02703 1.95637 7.05405 2.78716C7.08108 3.18916 6.91892 3.56435 6.64865 3.80555C6.2973 4.07354 5.86486 4.23434 5.43243 4.26114L1.83784 4.26114L1.83784 1.31318L5.43243 1.31318Z" fill-rule="evenodd"></path></g><defs><clipPath id="clip_28"><rect x="-250" y="-37" width="1440" height="6050" clip-rule="evenodd"></rect></clipPath></defs><g clip-path="url(#clip_28)"><path fill="rgb(0,0,0)" stroke="none" transform="translate(99.2973 44.936)" d="M9.37838 9.11885C9.37838 9.06525 9.37838 9.03845 9.35135 9.01165L8.2973 6.25129C7.72973 4.53611 7.24324 3.22293 6.91892 2.25814C6.56757 1.29335 6.37838 0.703762 6.2973 0.435766C6.13513 0.14097 5.81081 -0.0198283 5.48649 0.00697138L3.78378 0.00697138C3.62162 -0.0198283 3.43243 0.033771 3.27027 0.11417C3.13514 0.167769 3.05405 0.274968 3.02703 0.408966C2.54054 1.85615 2.05405 3.30333 1.54054 4.75051C1.02703 6.19769 0.540541 7.64487 0.0540541 9.03845C0.027027 9.11885 0 9.19925 0 9.27965C0 9.54764 0.216216 9.70844 0.648649 9.81564C0.783784 9.84244 0.945946 9.84244 1.10811 9.84244C1.45946 9.86924 1.78378 9.70844 1.94595 9.38684L2.64865 6.94808L6.62162 6.94808L7.56757 9.38684C7.7027 9.70844 8.02703 9.92284 8.37838 9.86924C8.51351 9.86924 8.64865 9.86924 8.78378 9.84244C9.18919 9.73524 9.37838 9.52084 9.37838 9.25285L9.37838 9.11885ZM4.62162 1.32015L4.7027 1.32015L6.18919 5.5545C6.18919 5.5813 6.16216 5.6081 6.08108 5.6081L3.24324 5.6081C3.18919 5.6081 3.16216 5.5813 3.16216 5.5545L4.62162 1.32015Z" fill-rule="evenodd"></path></g><defs><clipPath id="clip_29"><rect x="-250" y="-37" width="1440" height="6050" clip-rule="evenodd"></rect></clipPath></defs><g clip-path="url(#clip_29)"><path fill="rgb(0,0,0)" stroke="none" transform="translate(110.784 45.0234)" d="M5.32432 5.35993L5.32432 9.21908C5.32432 9.62107 5 9.83547 4.35135 9.83547C3.7027 9.83547 3.40541 9.62107 3.40541 9.21908L3.40541 5.35993C2.86486 4.66314 2.32432 3.93955 1.75676 3.16236C1.18919 2.38517 0.648649 1.68838 0.135135 0.991587C0.0540541 0.884388 0 0.75039 0 0.616392C0 0.428794 0.135135 0.294796 0.405405 0.187597C0.594595 0.0803989 0.810811 0.0267996 1.02703 0C1.27027 0 1.51351 0.0803989 1.7027 0.267996L4.32432 3.75195C4.78378 3.16236 5.24324 2.57277 5.7027 1.98317C6.16216 1.39358 6.59459 0.803989 7.05405 0.241197C7.21622 0.0803989 7.40541 0 7.62162 0C7.83784 0 8.08108 0.0535993 8.27027 0.160798C8.56757 0.294796 8.72973 0.455594 8.72973 0.643191C8.72973 0.777189 8.67568 0.884388 8.59459 0.964787L5.32432 5.35993Z"></path></g></svg> 