<?xml version="1.0" encoding="UTF-8"?> <svg xmlns="http://www.w3.org/2000/svg" xmlns:xlink="http://www.w3.org/1999/xlink" width="200px" height="67px" viewBox="0 0 200 67" version="1.1"><title>Webapp</title><defs><filter id="filter-1"><feColorMatrix in="SourceGraphic" type="matrix" values="0 0 0 0 1.000000 0 0 0 0 1.000000 0 0 0 0 1.000000 0 0 0 1.000000 0"></feColorMatrix></filter></defs><g id="Page-1" stroke="none" stroke-width="1" fill="none" fill-rule="evenodd"><g id="Webapp" transform="translate(0.000000, -0.000130)"><g id="Group"><g fill-rule="nonzero" id="Path"><path d="M184.073248,1.68160688e-16 L15.9357441,1.68160688e-16 C15.3228617,1.68160688e-16 14.7173333,1.68160688e-16 14.1060721,0.00355996583 C13.5943897,0.00690265675 13.0867854,0.0166131739 12.5701892,0.0247860532 C11.4479036,0.0379926967 10.3282572,0.136726521 9.22098003,0.320129509 C8.11525812,0.507525154 7.04417377,0.860819359 6.04395288,1.36806311 C5.04495528,1.87959796 4.13214262,2.54428506 3.33862955,3.33801115 C2.54095068,4.1295052 1.87602374,5.04436524 1.3694169,6.04741256 C0.861411853,7.04846345 0.509159513,8.12118173 0.32482599,9.2285178 C0.13873996,10.3344553 0.0386053736,11.4531464 0.0253208837,12.5745514 C0.00981079784,13.0869859 0.00817287929,13.6011252 0,14.1136266 L0,52.7455401 C0.00817287929,53.2644928 0.00981079784,53.7672336 0.0253208837,54.2863535 C0.0386094473,55.4077029 0.138744035,56.5263381 0.32482599,57.6322199 C0.508650513,58.7402034 0.860923681,59.8135374 1.3694169,60.8149631 C1.87579371,61.8147668 2.54081415,62.725923 3.33862955,63.5130161 C4.12913387,64.3102713 5.04253655,64.9754106 6.04395288,65.483031 C7.04416618,65.9916323 8.11513505,66.3470294 9.22098003,66.5373157 C10.3284454,66.7192495 11.4479767,66.8180235 12.5701892,66.8328095 C13.0867854,66.8441747 13.5943897,66.8506929 14.1060721,66.8506929 C14.7173166,66.8540356 15.3228952,66.8540356 15.9357441,66.8540356 L184.073248,66.8540356 C184.673929,66.8540356 185.284305,66.8540356 185.884986,66.8506929 C186.394245,66.8506929 186.916541,66.8441747 187.4258,66.8328095 C188.54589,66.8188099 189.663314,66.7200296 190.76849,66.5373157 C191.877903,66.3456898 192.952711,65.9903869 193.957752,65.483031 C194.958265,64.9751168 195.870825,64.3099956 196.660652,63.5130161 C197.456409,62.7228404 198.122849,61.8123506 198.635514,60.8149631 C199.140191,59.8128089 199.489111,58.7395607 199.670244,57.6322199 C199.856623,56.5261864 199.960311,55.4078 199.980445,54.2863535 C199.986964,53.7672336 199.986964,53.2644928 199.986964,52.7455401 C200,52.1383403 200,51.5344832 200,50.9174224 L200,15.9383848 C200,15.3263214 200,14.719155 199.986964,14.1136266 C199.986964,13.6011252 199.986964,13.0869859 199.980445,12.5744846 C199.960315,11.4529824 199.856628,10.3345401 199.670244,9.22845095 C199.488606,8.12175551 199.139707,7.04912223 198.635514,6.04734571 C197.603833,4.03684427 195.967885,2.4003118 193.957752,1.36791269 C192.952708,0.861908475 191.877785,0.508708103 190.76849,0.319979088 C189.663505,0.135768043 188.545965,0.0369998528 187.4258,0.0245520648 C186.916541,0.016395899 186.394245,0.00660181456 185.884986,0.00334269092 C185.284305,1.68160688e-16 184.673929,1.68160688e-16 184.073248,1.68160688e-16 L184.073248,1.68160688e-16 Z" fill="#A6A6A6"></path><path d="M14.1142283,65.3916084 C13.6050027,65.3916084 13.1080783,65.3850901 12.6028473,65.373725 C11.5562203,65.360088 10.5120395,65.2689735 9.47886864,65.1011285 C8.5154889,64.935211 7.5822329,64.6265742 6.70988376,64.1853983 C5.84553359,63.747878 5.05717675,63.174189 4.37501415,62.4863085 C3.6829774,61.806531 3.10682519,61.018105 2.6693894,60.1522746 C2.22713344,59.2808169 1.921066,58.3467194 1.76184882,57.3825209 C1.58990808,56.3464787 1.49688102,55.2988767 1.4835698,54.2487482 C1.47297347,53.8962614 1.4591013,52.7226426 1.4591013,52.7226426 L1.4591013,14.1136266 C1.4591013,14.1136266 1.47387599,12.9580416 1.48365336,12.6185412 C1.49639875,11.5700762 1.58888486,10.5240998 1.76031118,9.48966553 C1.91982225,8.52282574 2.22612664,7.58603458 2.66862058,6.71172224 C3.10444869,5.84648984 3.67740222,5.05747513 4.36527021,4.37526486 C5.05236506,3.68657262 5.84324369,3.10992952 6.7090648,2.66636426 C7.57940903,2.22660587 8.5109013,1.9201462 9.47233368,1.75725262 C10.5088977,1.58772159 11.5567034,1.49606492 12.6069588,1.48305168 L14.1150472,1.46264455 L185.876797,1.46264455 L187.402902,1.48387064 C188.443604,1.49623725 189.481892,1.58707623 190.508931,1.7556147 C191.480096,1.92055154 192.421296,2.22914954 193.301582,2.67126131 C195.036135,3.56517382 196.447508,4.97942774 197.337881,6.71580032 C197.773312,7.58407693 198.074892,8.51322666 198.232385,9.47171528 C198.405853,10.5146372 198.502937,11.5688332 198.522865,12.6258951 C198.527712,13.0992202 198.527712,13.6076435 198.527712,14.1136266 C198.540915,14.7403811 198.540915,15.3369345 198.540915,15.9383848 L198.540915,50.9174224 C198.540915,51.5246222 198.540915,52.1171142 198.527712,52.7144531 C198.527712,53.2579746 198.527712,53.7558684 198.521194,54.2683029 C198.501697,55.3065021 198.406231,56.3418815 198.235561,57.3661417 C198.079607,58.3372957 197.775206,59.2786843 197.333034,60.1572886 C196.892506,61.0137214 196.319662,61.7953178 195.635616,62.4732721 C194.952839,63.1648491 194.163091,63.7418946 193.296735,64.1822228 C192.418887,64.6267901 191.479073,64.9365683 190.508931,65.1011285 C189.475838,65.2698692 188.431557,65.3609896 187.384852,65.373725 C186.895315,65.3850901 186.382713,65.3916084 185.884986,65.3916084 L184.073248,65.394951 L14.1142283,65.3916084 Z" fill="#000000"></path></g><g id="globe" transform="translate(13.370764, 16.713672)" filter="url(#filter-1)"><g><path d="M28.5289958,4.89791098 C21.999097,-1.63211511 11.4288804,-1.63315885 4.89793783,4.89791098 C-1.63215668,11.4279371 -1.63313519,21.9980181 4.89793783,28.5290227 C11.4278366,35.0590488 21.9980533,35.0600273 28.5289958,28.5290227 C35.0590903,21.9989966 35.0600036,11.4289156 28.5289958,4.89791098 Z M27.8306032,26.1470785 C27.0498857,25.4489472 26.2147631,24.8311186 25.3344989,24.298681 C25.9163187,22.2888952 26.2610139,20.0772763 26.3424908,17.7783095 L31.2551796,17.7783095 C31.0330587,20.877107 29.8424122,23.7839869 27.8306032,26.1470785 Z M2.17168877,17.7783095 L7.08437758,17.7783095 C7.16585453,20.0772763 7.51054969,22.2888952 8.09236955,24.298681 C7.21210527,24.8311186 6.37698274,25.4489472 5.59626517,26.1470785 C3.58445619,23.7839869 2.39387494,20.877107 2.17168877,17.7783095 Z M5.5963304,7.27985512 C6.37704798,7.97798642 7.2121705,8.59581501 8.09243478,9.12825265 C7.51061493,11.1380384 7.16591977,13.3496573 7.08444281,15.6486242 L2.17168877,15.6486242 C2.39387494,12.5498919 3.58445619,9.64301196 5.5963304,7.27985512 Z M15.6486562,9.34835123 C13.9120032,9.22414622 12.237518,8.7964087 10.6851503,8.09077553 C11.5879855,5.76591089 13.2523595,2.97749542 15.6486562,2.2864746 L15.6486562,9.34835123 Z M15.6486562,11.4820158 L15.6486562,15.6486894 L9.21497723,15.6486894 C9.28869137,13.7039417 9.56423875,11.8364959 10.0225059,10.127829 C11.7866223,10.899022 13.6838808,11.3595721 15.6486562,11.4820158 Z M15.6486562,17.7783095 L15.6486562,21.9449831 C13.6838808,22.0674267 11.7866223,22.5279768 10.0225059,23.2991699 C9.56423875,21.590503 9.28869137,19.7230572 9.21497723,17.7783095 L15.6486562,17.7783095 Z M15.6486562,24.0786476 L15.6486562,31.140459 C13.25249,30.4494382 11.588116,27.6613489 10.6851503,25.3362233 C12.237518,24.6305902 13.9120032,24.2028527 15.6486562,24.0786476 Z M17.7782774,24.0786476 C19.5149304,24.2028527 21.1894156,24.6305902 22.7417833,25.3362233 C21.8388829,27.6611532 20.1745741,30.4494382 17.7782774,31.140459 L17.7782774,24.0786476 Z M17.7782774,21.9449831 L17.7782774,17.7783095 L24.2119564,17.7783095 C24.1382423,19.7230572 23.8626949,21.590503 23.4044278,23.2991699 C21.6403114,22.5279768 19.7430528,22.0674267 17.7782774,21.9449831 Z M17.7782774,15.6486894 L17.7782774,11.4820158 C19.7430528,11.3595721 21.6403114,10.899022 23.4044278,10.127829 C23.8626949,11.8364959 24.1382423,13.7039417 24.2119564,15.6486894 L17.7782774,15.6486894 Z M17.7782774,9.34835123 L17.7782774,2.28653983 C20.1745741,2.97756066 21.8389481,5.76597612 22.7417833,8.09084076 C21.1894156,8.7964087 19.5149304,9.22414622 17.7782774,9.34835123 Z M22.5612163,3.34965381 C23.9242756,3.94654237 25.1959424,4.75589717 26.3359022,5.76010509 C25.7932879,6.23852921 25.2207312,6.67233347 24.6228638,7.06027841 C24.0919263,5.74568844 23.413691,4.46815122 22.5612163,3.34965381 Z M8.80400457,7.06027841 C8.20613722,6.67233347 7.63364579,6.23852921 7.09096618,5.76010509 C8.23092604,4.75589717 9.50259285,3.94654237 10.8656521,3.34965381 C10.0131774,4.46828168 9.3349421,5.7458189 8.80400457,7.06027841 Z M8.80406981,26.3667205 C9.3349421,27.6812452 10.0133079,28.9588477 10.8657174,30.0773451 C9.50265808,29.4804565 8.23099128,28.6711017 7.09103142,27.6668938 C7.63364579,27.1884697 8.20620245,26.7546654 8.80406981,26.3667205 L8.80406981,26.3667205 Z M24.6228638,26.3667205 C25.2207312,26.7546654 25.7932879,27.1884697 26.3359022,27.6668286 C25.1959424,28.6710365 23.9242756,29.4803913 22.5612163,30.0772798 C23.4136257,28.9589129 24.0919263,27.6813104 24.6228638,26.3667205 Z M26.3425561,15.6486894 C26.2610791,13.3497225 25.916384,11.1380384 25.3345641,9.12831788 C26.2148284,8.59588024 27.0498857,7.97805166 27.8306685,7.27992036 C29.8424775,9.64301196 31.0330587,12.5498919 31.2552449,15.6486894 L26.3425561,15.6486894 Z" id="Shape" fill="#000000" fill-rule="nonzero"></path></g></g></g><g id="Group-2" transform="translate(56.825746, 16.713455)" fill="#FFFFFF" fill-rule="nonzero"><path d="M4.04370935,10.3545074 C4.83585746,10.3545074 5.51592967,10.2086999 6.08392598,9.91708497 C6.65192228,9.62547001 7.08934473,9.21960291 7.39619331,8.69948369 C7.70304189,8.17936446 7.85646618,7.57328411 7.85646618,6.88124263 L7.85646618,0.705098866 L6.38751021,0.705098866 L6.38751021,6.77025485 C6.38751021,7.44923894 6.18512072,7.9998254 5.78034174,8.42201423 C5.37556276,8.84420305 4.7966853,9.05529747 4.04370935,9.05529747 C3.29943833,9.05529747 2.72164898,8.84420305 2.31034131,8.42201423 C1.89903363,7.9998254 1.6933798,7.44923894 1.6933798,6.77025485 L1.6933798,0.705098866 L0.224423829,0.705098866 L0.224423829,6.88124263 C0.224423829,7.57328411 0.378936234,8.17936446 0.687961046,8.69948369 C0.996985857,9.21960291 1.43658453,9.62547001 2.00675707,9.91708497 C2.57692961,10.2086999 3.2559137,10.3545074 4.04370935,10.3545074 Z M12.6647762,10.2631057 C13.2305963,10.2631057 13.7343937,10.1706159 14.1761687,9.98563625 C14.6179436,9.80065661 14.9672286,9.54168511 15.2240239,9.20872176 C15.4808192,8.8757584 15.6092168,8.49165362 15.6092168,8.05640741 L15.6092168,8.04335002 C15.6092168,7.52975949 15.4427351,7.12062805 15.1097718,6.8159557 C14.7768084,6.51128335 14.2708347,6.27842663 13.5918506,6.11738553 L12.4623867,5.86276649 C12.0663126,5.76701233 11.7812264,5.64731962 11.6071279,5.50368837 C11.4330294,5.36005712 11.3459802,5.17725371 11.3459802,4.95527814 L11.3459802,4.94222075 C11.3459802,4.75071242 11.4036503,4.58423074 11.5189905,4.44277572 C11.6343308,4.3013207 11.7921075,4.19033292 11.9923208,4.10981237 C12.192534,4.02929182 12.4210383,3.98903154 12.6778336,3.98903154 C13.0782601,3.98903154 13.4014304,4.07172833 13.6473445,4.23712189 C13.8932586,4.40251545 14.0488591,4.6092574 14.1141461,4.85734774 L14.1141461,4.87040513 L15.4721143,4.87040513 L15.4721143,4.86387643 C15.4285896,4.4765073 15.2893108,4.13592714 15.0542779,3.84213595 C14.8192449,3.54834475 14.5004271,3.31766426 14.0978243,3.15009447 C13.6952216,2.98252468 13.2240676,2.89873978 12.6843623,2.89873978 C12.1490094,2.89873978 11.6735029,2.98905337 11.2578428,3.16968055 C10.8421827,3.35030773 10.5168361,3.6005743 10.2818032,3.92048027 C10.0467702,4.24038623 9.92925373,4.60708117 9.92925373,5.02056507 L9.92925373,5.02709376 C9.92925373,5.54503676 10.0892067,5.96178501 10.4091127,6.27733851 C10.7290186,6.59289202 11.221935,6.82683686 11.8878617,6.97917303 L13.0238543,7.24032076 C13.4329857,7.33607492 13.7267769,7.4601201 13.9052279,7.61245627 C14.0836788,7.76479244 14.1729043,7.95194832 14.1729043,8.17392389 L14.1729043,8.18698127 C14.1729043,8.37848961 14.1097936,8.54823563 13.9835722,8.69621934 C13.8573508,8.84420305 13.6843404,8.9595433 13.4645411,9.04224008 C13.2447418,9.12493686 12.9890346,9.16628525 12.6974196,9.16628525 C12.2752308,9.16628525 11.9357388,9.08358847 11.6789435,8.91819491 C11.4221482,8.75280135 11.2480498,8.53735447 11.156648,8.27185428 L11.156648,8.2587969 L9.73339293,8.2587969 L9.73339293,8.27185428 C9.77691755,8.66792834 9.92272504,9.01503719 10.1708154,9.31318085 C10.4189057,9.6113245 10.7540453,9.84418123 11.1762341,10.011751 C11.598423,10.1793208 12.0946036,10.2631057 12.6647762,10.2631057 Z M20.3130677,10.2631057 C20.7700762,10.2631057 21.1737671,10.2043475 21.5241403,10.086831 C21.8745135,9.96931452 22.1748334,9.81480211 22.4251,9.62329378 C22.6753665,9.43178544 22.8766679,9.21960291 23.0290041,8.98674619 C23.1813403,8.75388946 23.2879756,8.51994462 23.3489101,8.28491167 L23.3619674,8.22615343 L21.9909419,8.22615343 L21.9648271,8.27838298 C21.9125976,8.40025192 21.8157553,8.52429709 21.6743003,8.65051849 C21.5328452,8.77673989 21.3522181,8.8822871 21.1324187,8.96716011 C20.9126194,9.05203312 20.6503835,9.09446963 20.3457112,9.09446963 C19.9496371,9.09446963 19.6068807,9.00742038 19.317442,8.8333219 C19.0280033,8.65922341 18.8049396,8.40678061 18.648251,8.07599349 C18.5229,7.81136379 18.4476895,7.50355767 18.4226193,7.15257512 L18.4149822,6.95378947 L23.4337831,6.95305826 L23.4337831,6.45687757 C23.4337831,5.74307378 23.3053854,5.11958358 23.0485902,4.58640697 C22.7917949,4.05323036 22.4251,3.63865834 21.9485054,3.34269092 C21.4719108,3.04672349 20.9028263,2.89873978 20.2412521,2.89873978 C19.5840303,2.89873978 19.0105934,3.05325219 18.5209414,3.362277 C18.0312894,3.67130181 17.6526252,4.10219556 17.3849488,4.65495825 C17.1172724,5.20772094 16.9834342,5.85406157 16.9834342,6.59398013 L16.9834342,6.60050882 C16.9834342,7.34913231 17.1172724,7.99764917 17.3849488,8.5460594 C17.6526252,9.09446963 18.0345538,9.51774657 18.5307345,9.81589023 C19.0269152,10.1140339 19.6210262,10.2631057 20.3130677,10.2631057 Z M22.0317738,5.94262547 L18.4316957,5.94262547 L18.4513456,5.76483609 C18.4894731,5.50891132 18.5561964,5.28040706 18.6515153,5.07932331 C18.8103802,4.74418372 19.0280033,4.49065281 19.3043846,4.31873055 C19.580766,4.1468083 19.8952314,4.06084717 20.2477808,4.06084717 C20.6003302,4.06084717 20.9115313,4.14354395 21.1813839,4.30893751 C21.4512366,4.47433107 21.6634191,4.72350953 21.8179315,5.05647288 C21.9106389,5.25625089 21.9755342,5.48697491 22.0126171,5.74864494 L22.0317738,5.94262547 Z M29.583667,1.76927586 C29.8274049,1.76927586 30.036323,1.68222661 30.2104215,1.50812813 C30.38452,1.33402964 30.4715693,1.12511146 30.4715693,0.881373582 C30.4715693,0.637635702 30.38452,0.429805636 30.2104215,0.257883381 C30.036323,0.0859611271 29.8274049,0 29.583667,0 C29.3399291,0 29.1310109,0.0859611271 28.9569124,0.257883381 C28.7828139,0.429805636 28.6957647,0.637635702 28.6957647,0.881373582 C28.6957647,1.12511146 28.7828139,1.33402964 28.9569124,1.50812813 C29.1310109,1.68222661 29.3399291,1.76927586 29.583667,1.76927586 Z M30.2887658,10.1260032 L30.2887658,3.03584234 L28.8655107,3.03584234 L28.8655107,10.1260032 L30.2887658,10.1260032 Z M35.0644324,10.171704 C35.2037112,10.171704 35.3386375,10.1640872 35.4692114,10.1488536 C35.5997852,10.13362 35.7216542,10.1172982 35.8348182,10.0998884 L35.8348182,8.96389576 C35.7347115,8.97260069 35.6465742,8.97912938 35.5704061,8.98348184 C35.494238,8.9878343 35.4039244,8.99001054 35.2994653,8.99001054 C34.9469159,8.99001054 34.6944731,8.90622564 34.5421369,8.73865585 C34.3898008,8.57108606 34.3136327,8.29579283 34.3136327,7.91277616 L34.3136327,4.15224887 L35.8348182,4.15224887 L35.8348182,3.03584234 L34.3136327,3.03584234 L34.3136327,1.2469804 L32.8642628,1.2469804 L32.8642628,3.03584234 L31.7543849,3.03584234 L31.7543849,4.15224887 L32.8642628,4.15224887 L32.8642628,8.2587969 C32.8642628,8.93778099 33.0372731,9.42634486 33.3832939,9.72448852 C33.7293146,10.0226322 34.2896941,10.171704 35.0644324,10.171704 Z M44.2175152,10.2631057 C44.9139091,10.2631057 45.5112845,10.115122 46.0096414,9.81915457 C46.5079984,9.52318715 46.8931913,9.0999102 47.1652201,8.54932374 C47.437249,7.99873728 47.5732635,7.34477985 47.5732635,6.58745144 L47.5732635,6.57439405 C47.5732635,5.81271318 47.437249,5.15657951 47.1652201,4.60599305 C46.8931913,4.05540659 46.5069102,3.63321777 46.0063771,3.33942657 C45.505844,3.04563538 44.9095566,2.89873978 44.2175152,2.89873978 C43.5298261,2.89873978 42.934627,3.04672349 42.4319176,3.34269092 C41.9292082,3.63865834 41.5418391,4.06084717 41.2698102,4.6092574 C40.9977813,5.15766763 40.8617669,5.81271318 40.8617669,6.57439405 L40.8617669,6.58745144 C40.8617669,7.34477985 40.9966932,7.99873728 41.2665458,8.54932374 C41.5363985,9.0999102 41.9226795,9.52318715 42.4253889,9.81915457 C42.9280983,10.115122 43.5254737,10.2631057 44.2175152,10.2631057 Z M44.2175152,9.07488355 C43.8127362,9.07488355 43.4688917,8.97586503 43.1859816,8.77782801 C42.9030716,8.57979098 42.6865366,8.29579283 42.5363767,7.92583354 C42.3862167,7.55587426 42.3111368,7.10974689 42.3111368,6.58745144 L42.3111368,6.57439405 C42.3111368,6.04774613 42.3862167,5.59944253 42.5363767,5.22948325 C42.6865366,4.85952397 42.9030716,4.57552582 43.1859816,4.37748879 C43.4688917,4.17945176 43.8127362,4.08043325 44.2175152,4.08043325 C44.6222941,4.08043325 44.9661387,4.17945176 45.2490487,4.37748879 C45.5319587,4.57552582 45.7474056,4.85952397 45.8953893,5.22948325 C46.043373,5.59944253 46.1173649,6.04774613 46.1173649,6.57439405 L46.1173649,6.58745144 C46.1173649,7.10974689 46.043373,7.55587426 45.8953893,7.92583354 C45.7474056,8.29579283 45.5319587,8.57979098 45.2490487,8.77782801 C44.9661387,8.97586503 44.6222941,9.07488355 44.2175152,9.07488355 Z M50.7167567,10.1260032 L50.7167567,5.96722558 C50.7167567,5.58420892 50.785308,5.25450991 50.9224105,4.97812856 C51.0595131,4.70174722 51.2542858,4.48847657 51.5067286,4.33831663 C51.7591714,4.18815669 52.057315,4.11307672 52.4011595,4.11307672 C52.923455,4.11307672 53.3075598,4.25779608 53.5534739,4.54723481 C53.799388,4.83667355 53.9223451,5.27736034 53.9223451,5.86929519 L53.9223451,10.1260032 L55.3456002,10.1260032 L55.3456002,5.53633183 C55.3456002,4.69195418 55.1345058,4.04126109 54.7123169,3.58425257 C54.2901281,3.12724404 53.6807834,2.89873978 52.8842828,2.89873978 C52.3663399,2.89873978 51.9376223,3.0053751 51.5981303,3.21864575 C51.2586382,3.43191639 51.001843,3.72788382 50.8277445,4.10654802 L50.7167567,4.10654802 L50.7167567,3.03584234 L49.3000303,3.03584234 L49.3000303,10.1260032 L50.7167567,10.1260032 Z M61.7370457,12.619964 C62.220169,12.619964 62.6293005,12.5525008 62.9644401,12.4175745 C63.2995796,12.2826481 63.5890184,12.0530558 63.8327563,11.7287973 C64.0764941,11.4045389 64.2984697,10.9594997 64.498683,10.3936796 L67.136275,3.03584234 L65.6412043,3.03584234 L63.872236,8.69700278 L63.7535705,8.69700278 L61.9786074,3.03584234 L60.4443645,3.03584234 L63.0166696,10.1325318 L62.9122105,10.4981387 C62.8077514,10.8550406 62.653239,11.1107477 62.4486733,11.2652601 C62.2441076,11.4197725 61.9764312,11.4970287 61.645644,11.4970287 C61.5672997,11.4970287 61.4856911,11.4948525 61.400818,11.4905 C61.315945,11.4861476 61.2386888,11.4796189 61.1690494,11.470914 L61.1690494,12.5873205 C61.2604511,12.5960254 61.3562053,12.6036422 61.4563119,12.6101709 C61.5564186,12.6166996 61.6499965,12.619964 61.7370457,12.619964 Z M71.3439452,10.2631057 C72.0403392,10.2631057 72.6377146,10.115122 73.1360715,9.81915457 C73.6344284,9.52318715 74.0196213,9.0999102 74.2916502,8.54932374 C74.5636791,7.99873728 74.6996935,7.34477985 74.6996935,6.58745144 L74.6996935,6.57439405 C74.6996935,5.81271318 74.5636791,5.15657951 74.2916502,4.60599305 C74.0196213,4.05540659 73.6333403,3.63321777 73.1328072,3.33942657 C72.632274,3.04563538 72.0359867,2.89873978 71.3439452,2.89873978 C70.6562562,2.89873978 70.061057,3.04672349 69.5583477,3.34269092 C69.0556383,3.63865834 68.6682691,4.06084717 68.3962403,4.6092574 C68.1242114,5.15766763 67.9881969,5.81271318 67.9881969,6.57439405 L67.9881969,6.58745144 C67.9881969,7.34477985 68.1231233,7.99873728 68.3929759,8.54932374 C68.6628286,9.0999102 69.0491096,9.52318715 69.551819,9.81915457 C70.0545283,10.115122 70.6519038,10.2631057 71.3439452,10.2631057 Z M71.3439452,9.07488355 C70.9391663,9.07488355 70.5953218,8.97586503 70.3124117,8.77782801 C70.0295017,8.57979098 69.8129667,8.29579283 69.6628067,7.92583354 C69.5126468,7.55587426 69.4375668,7.10974689 69.4375668,6.58745144 L69.4375668,6.57439405 C69.4375668,6.04774613 69.5126468,5.59944253 69.6628067,5.22948325 C69.8129667,4.85952397 70.0295017,4.57552582 70.3124117,4.37748879 C70.5953218,4.17945176 70.9391663,4.08043325 71.3439452,4.08043325 C71.7487242,4.08043325 72.0925687,4.17945176 72.3754788,4.37748879 C72.6583888,4.57552582 72.8738357,4.85952397 73.0218194,5.22948325 C73.1698031,5.59944253 73.243795,6.04774613 73.243795,6.57439405 L73.243795,6.58745144 C73.243795,7.10974689 73.1698031,7.55587426 73.0218194,7.92583354 C72.8738357,8.29579283 72.6583888,8.57979098 72.3754788,8.77782801 C72.0925687,8.97586503 71.7487242,9.07488355 71.3439452,9.07488355 Z M78.7898473,10.2631057 C79.3077903,10.2631057 79.7430365,10.1564704 80.0955859,9.94319974 C80.4481354,9.7299291 80.7092831,9.43396167 80.8790291,9.05529747 L80.9834882,9.05529747 L80.9834882,10.1260032 L82.4067433,10.1260032 L82.4067433,3.03584234 L80.9834882,3.03584234 L80.9834882,7.19461991 C80.9834882,7.57328411 80.9182013,7.90080689 80.7876274,8.17718823 C80.6570536,8.45356958 80.4622809,8.66684022 80.2033094,8.81700017 C79.9443379,8.96716011 79.6276963,9.04224008 79.2533845,9.04224008 C78.7310891,9.04224008 78.3546011,8.8964326 78.1239206,8.60481764 C77.8932401,8.31320267 77.7778998,7.87578023 77.7778998,7.2925503 L77.7778998,3.03584234 L76.3611734,3.03584234 L76.3611734,7.62551366 C76.3611734,8.18262881 76.451487,8.6581353 76.6321142,9.05203312 C76.8127414,9.44593094 77.0847703,9.74625083 77.4482008,9.95299278 C77.8116314,10.1597347 78.2588469,10.2631057 78.7898473,10.2631057 Z M85.902786,10.1260032 L85.902786,5.88888127 C85.902786,5.54503676 85.9800422,5.24798122 86.1345546,4.99771464 C86.289067,4.74744807 86.5023377,4.55267539 86.7743665,4.4133966 C87.0463954,4.27411781 87.363037,4.20447842 87.7242914,4.20447842 C87.8592177,4.20447842 87.9887035,4.21100711 88.1127486,4.2240645 C88.2367938,4.23712189 88.3619271,4.25670797 88.4881485,4.28282274 L88.4881485,2.9770841 C88.4185091,2.95967425 88.3271074,2.94444063 88.2139434,2.93138325 C88.1007794,2.91832586 87.9854391,2.91179717 87.8679226,2.91179717 C87.3978567,2.91179717 87.0028708,3.01625626 86.6829648,3.22517444 C86.3630589,3.43409262 86.1399952,3.72788382 86.0137738,4.10654802 L85.902786,4.10654802 L85.902786,3.03584234 L84.4860596,3.03584234 L84.4860596,10.1260032 L85.902786,10.1260032 Z" id="Useitonyour"></path><path d="M6.376085,31.8534941 L9.66491419,20.4168558 L9.80283284,20.4168558 L13.091662,31.8534941 L15.3407968,31.8534941 L19.467747,16.5445247 L16.9958206,16.5445247 L14.1950112,28.4373554 L14.0570925,28.4373554 L10.8425272,16.5445247 L8.6252198,16.5445247 L5.43187274,28.4373554 L5.2939541,28.4373554 L2.48253559,16.5445247 L0,16.5445247 L4.12695019,31.8534941 L6.376085,31.8534941 Z M25.2801338,32.0762858 C26.0227726,32.0762858 26.6787703,31.9808036 27.2481267,31.7898394 C27.8174832,31.5988751 28.305503,31.3477924 28.7121862,31.0365914 C29.1188694,30.7253903 29.4459841,30.3805937 29.6935304,30.0022016 C29.9410767,29.6238094 30.1143591,29.243649 30.2133776,28.8617205 L30.2345958,28.7662383 L28.0066793,28.7662383 L27.9642428,28.8511113 C27.8793698,29.0491484 27.722001,29.2507218 27.4921366,29.4558315 C27.2622722,29.6609413 26.9687531,29.8324555 26.6115791,29.9703742 C26.2544052,30.1082928 25.828272,30.1772521 25.3331794,30.1772521 C24.6895591,30.1772521 24.1325799,30.0357971 23.662242,29.7528871 C23.1919041,29.469977 22.8294256,29.0597575 22.5748065,28.5222284 C22.362624,28.0742875 22.2388509,27.5502163 22.2034871,26.9500148 L22.1955656,26.6990647 L30.3512962,26.6974587 L30.3512962,25.8911651 C30.3512962,24.7312339 30.1426501,23.7180623 29.7253578,22.8516503 C29.3080655,21.9852383 28.7121862,21.3115588 27.93772,20.8306117 C27.1632537,20.3496647 26.2384915,20.1091911 25.1634334,20.1091911 C24.095448,20.1091911 23.1636131,20.3602738 22.3679286,20.8624391 C21.5722441,21.3646044 20.9569147,22.0648068 20.5219406,22.9630462 C20.0869664,23.8612855 19.8694793,24.911589 19.8694793,26.1139567 L19.8694793,26.1245658 C19.8694793,27.341079 20.0869664,28.3949189 20.5219406,29.2860855 C20.9569147,30.1772521 21.5775486,30.8650772 22.3838423,31.3495606 C23.1901359,31.8340441 24.1555664,32.0762858 25.2801338,32.0762858 Z M28.0736876,25.0544608 L22.2223072,25.0544608 L22.2359039,24.9068739 C22.2932718,24.4337854 22.4080075,24.0157073 22.5801111,23.6526394 C22.8382665,23.1080375 23.1919041,22.6960498 23.6410237,22.4166761 C24.0901434,22.1373025 24.6011497,21.9976156 25.1740425,21.9976156 C25.7469353,21.9976156 26.252637,22.1319979 26.6911476,22.4007625 C27.1296582,22.669527 27.4744548,23.074442 27.7255374,23.6155074 C27.8929259,23.9762177 28.0045182,24.3990111 28.0603143,24.8838874 L28.0736876,25.0544608 Z M38.7310916,32.0444584 C39.7000584,32.0444584 40.5417158,31.8022167 41.2560637,31.3177332 C41.9704115,30.8332498 42.5238543,30.1454248 42.9163919,29.2542581 C43.3089296,28.3630915 43.5051985,27.312788 43.5051985,26.1033476 L43.5051985,26.0821293 C43.5051985,24.8656162 43.3106978,23.8117763 42.9216965,22.9206096 C42.5326952,22.029443 41.9810206,21.341618 41.2666728,20.8571346 C40.5523249,20.3726511 39.7071312,20.1304094 38.7310916,20.1304094 C37.9389435,20.1304094 37.2263638,20.3125327 36.5933526,20.6767794 C35.9603414,21.0410261 35.4917716,21.5343505 35.1876433,22.1567525 L35.0072882,22.1567525 L35.0072882,15.8124949 L32.7051077,15.8124949 L32.7051077,31.8534941 L35.0072882,31.8534941 L35.0072882,30.0393335 L35.1876433,30.0393335 C35.5271354,30.6688083 36.0010097,31.1603645 36.6092663,31.5140021 C37.2175229,31.8676396 37.924798,32.0444584 38.7310916,32.0444584 Z M38.0733257,30.0711609 C37.4367781,30.0711609 36.8851036,29.912024 36.418302,29.5937502 C35.9515004,29.2754764 35.5943265,28.8175158 35.3467802,28.2198683 C35.0992339,27.6222209 34.9754608,26.9167139 34.9754608,26.1033476 L34.9754608,26.0821293 C34.9754608,25.2616902 35.0992339,24.5544151 35.3467802,23.960304 C35.5943265,23.366193 35.9515004,22.9082323 36.418302,22.5864222 C36.8851036,22.264612 37.4367781,22.1037069 38.0733257,22.1037069 C38.7169461,22.1037069 39.2686206,22.264612 39.7283495,22.5864222 C40.1880783,22.9082323 40.5399476,23.3644248 40.7839575,23.9549995 C41.0279674,24.5455742 41.1499724,25.2546175 41.1499724,26.0821293 L41.1499724,26.1033476 C41.1499724,26.9237867 41.0279674,27.6310618 40.7839575,28.2251729 C40.5399476,28.819284 40.1880783,29.2754764 39.7283495,29.5937502 C39.2686206,29.912024 38.7169461,30.0711609 38.0733257,30.0711609 Z M51.4486051,16.5445247 L51.4486051,31.8534941 L53.8241071,31.8534941 L57.7504262,31.8534941 C58.8396298,31.8534941 59.773233,31.6802117 60.5512356,31.3336469 C61.3292382,30.9870821 61.9286538,30.4902214 62.3494825,29.8430647 C62.7703112,29.1959079 62.9807255,28.4267463 62.9807255,27.5355797 L62.9807255,27.5143614 C62.9807255,26.8495228 62.8357341,26.2536435 62.5457513,25.7267236 C62.2557686,25.1998036 61.8526217,24.770134 61.3363109,24.4377147 C60.8200001,24.1052954 60.2152799,23.903722 59.5221503,23.8329945 L59.5221503,23.6526394 C60.0313884,23.5677664 60.4875808,23.366193 60.8907276,23.0479192 C61.2938744,22.7296454 61.6156846,22.3388759 61.8561581,21.8756107 C62.0966317,21.4123455 62.2168684,20.9119484 62.2168684,20.3744193 L62.2168684,20.353201 C62.2168684,19.5751984 62.0329769,18.9015189 61.6651938,18.3321625 C61.2974108,17.762806 60.7687227,17.3225273 60.0791294,17.0113262 C59.3895362,16.7001252 58.5673289,16.5445247 57.6125075,16.5445247 L53.8250494,16.5445247 L52.6368272,16.5445247 L51.4486051,16.5445247 Z M53.8241071,18.4860731 L57.0502238,18.4859948 C57.9343177,18.4859948 58.6203746,18.6858 59.1083944,19.0854104 C59.5964142,19.4850209 59.8404241,20.0455364 59.8404241,20.766957 L59.8404241,20.7881752 C59.8404241,21.5308141 59.5716596,22.094866 59.0341305,22.4803309 C58.4966014,22.8657958 57.7009169,23.0585283 56.647077,23.0585283 L53.8241071,23.0588743 L53.8241071,18.4860731 Z M53.8241071,24.8739555 L57.1244877,24.8726889 C57.8741993,24.8726889 58.501906,24.9664029 59.0076077,25.1538308 C59.5133094,25.3412587 59.8934697,25.6188641 60.1480888,25.9866472 C60.4027078,26.3544302 60.5300173,26.8141591 60.5300173,27.3658336 L60.5300173,27.3870519 C60.5300173,28.207491 60.25418,28.8334295 59.7025055,29.2648673 C59.1508309,29.6963051 58.3374645,29.912024 57.2624064,29.912024 L53.8241071,29.913062 L53.8241071,24.8739555 Z M67.5624536,31.8534941 L67.5624536,24.9681711 C67.5624536,24.4094237 67.6879949,23.9267085 67.9390776,23.5200253 C68.1901602,23.1133421 68.536725,22.7968365 68.978772,22.5705085 C69.4208189,22.3441804 69.9353616,22.2310164 70.5223999,22.2310164 C70.7416552,22.2310164 70.9520695,22.2416256 71.1536429,22.2628438 C71.3552163,22.2840621 71.5585579,22.3158894 71.7636677,22.3583259 L71.7636677,20.2365007 C71.6505037,20.2082097 71.5019759,20.183455 71.3180844,20.1622368 C71.1341928,20.1410185 70.9467649,20.1304094 70.7558007,20.1304094 C69.9919436,20.1304094 69.3500914,20.3001554 68.8302442,20.6396475 C68.310397,20.9791395 67.9479185,21.4565502 67.7428088,22.0718795 L67.5624536,22.0718795 L67.5624536,20.3319828 L65.2602732,20.3319828 L65.2602732,31.8534941 L67.5624536,31.8534941 Z M78.0640742,32.0762858 C79.1957144,32.0762858 80.1664495,31.8358122 80.9762794,31.3548652 C81.7861094,30.8739181 82.4120479,30.1860931 82.8540948,29.2913901 C83.2961418,28.3966871 83.5171652,27.3340063 83.5171652,26.1033476 L83.5171652,26.0821293 C83.5171652,24.8443979 83.2961418,23.7781807 82.8540948,22.8834777 C82.4120479,21.9887747 81.7843412,21.3027179 80.9709749,20.8253072 C80.1576085,20.3478965 79.1886416,20.1091911 78.0640742,20.1091911 C76.9465796,20.1091911 75.9793809,20.3496647 75.1624782,20.8306117 C74.3455754,21.3115588 73.7161006,21.9976156 73.2740536,22.8887823 C72.8320067,23.7799489 72.6109832,24.8443979 72.6109832,26.0821293 L72.6109832,26.1033476 C72.6109832,27.3340063 72.8302385,28.3966871 73.2687491,29.2913901 C73.7072596,30.1860931 74.3349663,30.8739181 75.151869,31.3548652 C75.9687718,31.8358122 76.9395068,32.0762858 78.0640742,32.0762858 Z M78.0640742,30.1454248 C77.4063084,30.1454248 76.8475611,29.9845197 76.3878323,29.6627095 C75.9281034,29.3408993 75.5762341,28.8794023 75.3322242,28.2782185 C75.0882143,27.6770347 74.9662093,26.9520777 74.9662093,26.1033476 L74.9662093,26.0821293 C74.9662093,25.2263265 75.0882143,24.4978331 75.3322242,23.8966493 C75.5762341,23.2954655 75.9281034,22.8339684 76.3878323,22.5121583 C76.8475611,22.1903481 77.4063084,22.029443 78.0640742,22.029443 C78.7218401,22.029443 79.2805874,22.1903481 79.7403162,22.5121583 C80.200045,22.8339684 80.5501462,23.2954655 80.7906197,23.8966493 C81.0310933,24.4978331 81.15133,25.2263265 81.15133,26.0821293 L81.15133,26.1033476 C81.15133,26.9520777 81.0310933,27.6770347 80.7906197,28.2782185 C80.5501462,28.8794023 80.200045,29.3408993 79.7403162,29.6627095 C79.2805874,29.9845197 78.7218401,30.1454248 78.0640742,30.1454248 Z M89.8918357,31.8534941 L92.2576709,23.2601017 L92.438026,23.2601017 L94.8250795,31.8534941 L97.2121329,31.8534941 L100.373653,20.3319828 L98.0926904,20.3319828 L96.0239108,29.2224308 L95.8541647,29.2224308 L93.4777204,20.3319828 L91.2816312,20.3319828 L88.915796,29.2224308 L88.7354409,29.2224308 L86.6772704,20.3319828 L84.3538717,20.3319828 L87.5260005,31.8534941 L89.8918357,31.8534941 Z M106.111775,32.0762858 C107.031233,32.0762858 107.849904,31.9259898 108.567788,31.6253979 C109.285672,31.324806 109.853261,30.9039773 110.270553,30.3629119 C110.687845,29.8218464 110.896491,29.1976761 110.896491,28.490401 L110.896491,28.4691828 C110.896491,27.6345982 110.625959,26.9697596 110.084893,26.474667 C109.543828,25.9795744 108.721621,25.6011823 107.618271,25.3394905 L105.782893,24.9257345 C105.139272,24.770134 104.676007,24.5756334 104.393097,24.3422326 C104.110187,24.1088318 103.968732,23.8117763 103.968732,23.451066 L103.968732,23.4298477 C103.968732,23.1186467 104.062446,22.848114 104.249874,22.6182495 C104.437302,22.3883851 104.693689,22.20803 105.019035,22.0771841 C105.344382,21.9463382 105.715701,21.8809153 106.132994,21.8809153 C106.783687,21.8809153 107.308839,22.0152975 107.708449,22.2840621 C108.108059,22.5528266 108.36091,22.8887823 108.467002,23.2919291 L108.467002,23.3131473 L110.6737,23.3131473 L110.6737,23.3025382 C110.602972,22.6730634 110.376644,22.1196206 109.994716,21.6422099 C109.612787,21.1647992 109.094708,20.7899434 108.440479,20.5176425 C107.786249,20.2453416 107.020624,20.1091911 106.143603,20.1091911 C105.273654,20.1091911 104.500956,20.2559507 103.825509,20.5494699 C103.150061,20.8429891 102.621373,21.2496722 102.239444,21.7695194 C101.857516,22.2893666 101.666551,22.8852459 101.666551,23.5571572 L101.666551,23.5677664 C101.666551,24.4094237 101.926475,25.0866396 102.446322,25.5994141 C102.966169,26.1121885 103.767159,26.4923489 104.849289,26.7398952 L106.695277,27.1642602 C107.360116,27.3198607 107.837527,27.5214342 108.127509,27.7689804 C108.417492,28.0165267 108.562484,28.320655 108.562484,28.6813653 L108.562484,28.7025836 C108.562484,29.0137846 108.459929,29.2896219 108.254819,29.5300954 C108.049709,29.770569 107.768567,29.9579969 107.411393,30.0923791 C107.05422,30.2267614 106.638695,30.2939525 106.164821,30.2939525 C105.478764,30.2939525 104.92709,30.1595703 104.509797,29.8908057 C104.092505,29.6220412 103.809595,29.27194 103.661067,28.8405022 L103.661067,28.819284 L101.348278,28.819284 L101.348278,28.8405022 C101.419005,29.4841225 101.655942,30.0481744 102.059089,30.5326579 C102.462236,31.0171413 103.006838,31.3955335 103.692895,31.6678344 C104.378951,31.9401353 105.185245,32.0762858 106.111775,32.0762858 Z M117.981973,32.0762858 C118.724612,32.0762858 119.38061,31.9808036 119.949966,31.7898394 C120.519323,31.5988751 121.007343,31.3477924 121.414026,31.0365914 C121.820709,30.7253903 122.147824,30.3805937 122.39537,30.0022016 C122.642916,29.6238094 122.816199,29.243649 122.915217,28.8617205 L122.936435,28.7662383 L120.708519,28.7662383 L120.666082,28.8511113 C120.581209,29.0491484 120.423841,29.2507218 120.193976,29.4558315 C119.964112,29.6609413 119.670593,29.8324555 119.313419,29.9703742 C118.956245,30.1082928 118.530112,30.1772521 118.035019,30.1772521 C117.391399,30.1772521 116.83442,30.0357971 116.364082,29.7528871 C115.893744,29.469977 115.531265,29.0597575 115.276646,28.5222284 C115.064464,28.0742875 114.94069,27.5502163 114.905327,26.9500148 L114.896742,26.6990647 L123.053136,26.6974587 L123.053136,25.8911651 C123.053136,24.7312339 122.84449,23.7180623 122.427197,22.8516503 C122.009905,21.9852383 121.414026,21.3115588 120.63956,20.8306117 C119.865093,20.3496647 118.940331,20.1091911 117.865273,20.1091911 C116.797288,20.1091911 115.865453,20.3602738 115.069768,20.8624391 C114.274084,21.3646044 113.658754,22.0648068 113.22378,22.9630462 C112.788806,23.8612855 112.571319,24.911589 112.571319,26.1139567 L112.571319,26.1245658 C112.571319,27.341079 112.788806,28.3949189 113.22378,29.2860855 C113.658754,30.1772521 114.279388,30.8650772 115.085682,31.3495606 C115.891976,31.8340441 116.857406,32.0762858 117.981973,32.0762858 Z M120.776535,25.0544608 L114.923483,25.0544608 L114.937744,24.9068739 C114.995111,24.4337854 115.109847,24.0157073 115.281951,23.6526394 C115.540106,23.1080375 115.893744,22.6960498 116.342863,22.4166761 C116.791983,22.1373025 117.302989,21.9976156 117.875882,21.9976156 C118.448775,21.9976156 118.954477,22.1319979 119.392987,22.4007625 C119.831498,22.669527 120.176294,23.074442 120.427377,23.6155074 C120.594765,23.9762177 120.706358,24.3990111 120.762154,24.8838874 L120.776535,25.0544608 Z M127.603037,31.8534941 L127.603037,24.9681711 C127.603037,24.4094237 127.728578,23.9267085 127.979661,23.5200253 C128.230743,23.1133421 128.577308,22.7968365 129.019355,22.5705085 C129.461402,22.3441804 129.975944,22.2310164 130.562983,22.2310164 C130.782238,22.2310164 130.992652,22.2416256 131.194226,22.2628438 C131.395799,22.2840621 131.599141,22.3158894 131.804251,22.3583259 L131.804251,20.2365007 C131.691087,20.2082097 131.542559,20.183455 131.358667,20.1622368 C131.174776,20.1410185 130.987348,20.1304094 130.796384,20.1304094 C130.032527,20.1304094 129.390674,20.3001554 128.870827,20.6396475 C128.35098,20.9791395 127.988501,21.4565502 127.783392,22.0718795 L127.603037,22.0718795 L127.603037,20.3319828 L125.300856,20.3319828 L125.300856,31.8534941 L127.603037,31.8534941 Z" id="WebBrowser"></path></g></g></g></svg> 